<svg width="416" height="500" viewBox="0 0 416 500" fill="none" xmlns="http://www.w3.org/2000/svg">
<rect x="0.75" y="0.75" width="414.5" height="498.5" rx="7.25" fill="#F7F7FD" stroke="#E0DEF7" stroke-width="1.5"/>
<mask id="mask0_56_1198" style="mask-type:alpha" maskUnits="userSpaceOnUse" x="0" y="0" width="416" height="500">
<rect x="0.75" y="0.75" width="414.5" height="498.5" rx="7.25" fill="#F7F7FD" stroke="#E0DEF7" stroke-width="1.5"/>
</mask>
<g mask="url(#mask0_56_1198)">
<path d="M364.921 632.92L553 524.332L241.079 344.246L53 452.833L364.921 632.92Z" fill="#2516DF"/>
<path d="M545.964 524.333L241.082 348.31L60.0391 452.832L364.923 628.858L545.964 524.333Z" fill="#A9A2F6"/>
<path d="M306.43 593.534L362.697 561.047L421.183 594.813L364.913 627.299L306.43 593.534ZM241.721 491.203L293.615 521.163L237.348 553.649L185.453 523.687L241.721 491.203ZM415.662 450.7L361.044 482.232L309.151 452.272L363.768 420.739L415.662 450.7ZM430.127 522.118L484.743 490.584L543.227 524.35L488.609 555.882L430.127 522.118ZM425.996 524.502L484.481 558.266L425.31 592.429L366.827 558.663L425.996 524.502ZM365.173 484.617L419.789 453.083L480.613 488.2L425.996 519.733L365.173 484.617ZM297.745 518.779L245.85 488.818L305.022 454.656L356.915 484.617L297.745 518.779ZM358.569 558.663L302.3 591.15L241.477 556.034L297.745 523.546L358.569 558.663ZM301.874 521.163L361.044 487.001L421.868 522.118L362.697 556.279L301.874 521.163ZM419.815 448.327L419.803 448.307L419.791 448.315L363.768 415.969L177.194 523.687L364.913 632.068L551.487 524.35L419.815 448.327Z" fill="#F0EFFB"/>
<path d="M105.167 392.634V396.364C105.284 397.396 106.059 398.475 107.537 399.319C109.555 400.492 112.299 400.938 114.622 400.586C115.606 400.445 116.521 400.164 117.272 399.718L159.357 375.414C160.46 374.805 160.976 373.961 161.023 373.092L161.046 369.456L158.372 369.668C155.51 368.143 151.358 368.002 148.941 369.409L113.283 389.983L107.396 393.385L107.279 392.634H105.167Z" fill="#C7784C"/>
<path d="M105.167 392.634V396.364C105.284 397.396 106.059 398.475 107.537 399.319C109.555 400.492 112.299 400.938 114.622 400.586V389.983H113.283L107.396 393.385L107.279 392.634H105.167Z" fill="#DFCFB5"/>
<path d="M117.271 396.207L159.366 371.903C161.861 370.463 161.547 367.948 158.667 366.285V366.284C155.786 364.621 151.43 364.441 148.935 365.882L106.84 390.185C104.345 391.625 104.659 394.141 107.539 395.803C110.42 397.466 114.777 397.647 117.271 396.207Z" fill="white"/>
<path d="M306.839 387.031L306.826 387.008L306.811 387.015L241.691 349.417L61.728 453.04L287.922 583.582L467.884 479.961L306.839 387.031Z" fill="#E8E6F9"/>
<path d="M467.883 446.544L418.744 418.173V385.637L423.956 387.525L418.741 384.533V381.283L383.878 364.209L383.738 364.454L314.776 324.897L311.622 323.755V321.488L273.316 261.579L259.133 269.773L227.685 278.166L101.551 351.038L104.963 350.128L104.864 350.186V372.768L61.7275 397.672V336.629L241.7 233L467.883 363.536V446.544Z" fill="url(#paint0_linear_56_1198)"/>
<path d="M467.884 474.767L418.745 446.397V417.751L467.884 446.121V474.767ZM61.728 447.371V397.25L104.864 372.346V403.189V422.915L61.728 447.371Z" fill="url(#paint1_linear_56_1198)"/>
<path d="M183.436 395.55L104.864 350.187L230.997 277.314L309.569 322.679L183.436 395.55Z" fill="#A8A2F6"/>
<path d="M183.436 489.612V395.55L309.569 322.679V416.741L183.436 489.612Z" fill="#7065F0"/>
<path d="M218.389 465.075L190.859 480.97V418.463L218.389 402.569V465.075Z" fill="#F7F7FD"/>
<path d="M104.864 444.249V350.187L183.436 395.55V489.612L104.864 444.249Z" fill="#A8A2F6"/>
<path d="M115.51 372.579V433.056L126.029 439.116V378.638L115.51 372.579Z" fill="#F7F7FD"/>
<path d="M130.225 381.069V441.546L140.743 447.606V387.128L130.225 381.069Z" fill="#F7F7FD"/>
<path d="M144.939 389.559V450.037L155.459 456.096V395.619L144.939 389.559Z" fill="#F7F7FD"/>
<path d="M159.654 398.049V458.526L170.172 464.586V404.109L159.654 398.049Z" fill="#F7F7FD"/>
<path d="M333.904 434.26L224.724 371.634L309.564 322.674L418.744 385.301L333.904 434.26Z" fill="#7065F0"/>
<path d="M333.904 528.399V434.262L418.744 385.302V479.439L333.904 528.399Z" fill="#7065F0"/>
<path d="M224.724 465.772V371.635L333.904 434.262V528.399L224.724 465.772Z" fill="#A8A2F6"/>
<path d="M326.377 517.434L232.25 463.091V400.872L326.377 455.216V517.434Z" fill="#F7F7FD"/>
<path d="M204.491 395.145L200.195 390.273L219.75 378.974L224.724 381.827V383.937L204.491 395.145Z" fill="#5245ED"/>
<path d="M224.724 383.938V381.828L224.732 381.833L224.734 383.932L224.724 383.938Z" fill="#013BA1"/>
<path d="M101.551 351.039L147.182 338.861L273.316 265.988L227.685 278.167L101.551 351.039Z" fill="#5598E9"/>
<path d="M185.488 398.769L147.182 338.86L273.316 265.988L311.621 325.897L185.488 398.769Z" fill="#3F461D"/>
<path d="M311.622 321.488V325.897L185.489 398.769V394.36L311.622 321.488Z" fill="#7065F0"/>
<path d="M158.442 371.383L144.107 351.063L116.87 357.119L104.864 350.187L107.087 349.562L147.182 338.861L166.475 369.034L158.442 371.383Z" fill="#5245ED"/>
<path d="M104.867 359.787L104.864 350.186L116.87 357.118L104.867 359.787Z" fill="#5245ED"/>
<path d="M107.086 349.562L147.007 338.348L147.182 338.623V338.861L107.086 349.562Z" fill="#073CAE"/>
<path d="M101.551 346.63L147.182 334.453L273.316 261.58L227.685 273.758L101.551 346.63Z" fill="#CBC7FA"/>
<path d="M185.488 394.361L147.182 334.452L273.316 261.58L311.621 321.489L185.488 394.361Z" fill="#A8A2F6"/>
<path d="M211.158 361.63L189.54 353.904L189.542 339.709L207.522 346.346L215.666 355.546L211.158 361.63Z" fill="#5245ED"/>
<path d="M189.539 338.61L181.723 334.098L189.491 329.612L197.307 334.126L189.539 338.61Z" fill="#A8A2F6"/>
<path d="M189.541 338.568L181.146 333.719L189.489 328.902L197.886 333.75L189.541 338.568Z" fill="#CBC7FA"/>
<path d="M189.542 340.026L197.886 335.207V333.75L189.542 338.568V340.026Z" fill="#2516DF"/>
<path d="M181.146 335.178L189.541 340.026V338.568L181.146 333.719V335.178Z" fill="#A8A2F6"/>
<path d="M195.024 334.116L189.53 337.296L189.512 337.277L184.017 334.098L189.494 330.937L189.512 330.956L195.024 334.116Z" fill="#2516DF"/>
<path d="M195.024 334.116L189.529 337.296L189.512 337.277V330.956L195.024 334.116Z" fill="#A8A2F6"/>
<path d="M189.54 353.903L197.307 349.419V334.126L189.54 338.61V353.903Z" fill="#2516DF"/>
<path d="M181.725 341.761L189.54 353.903V338.61L181.725 334.097V341.761Z" fill="#A8A2F6"/>
<path d="M189.544 330.543L188.44 329.905L189.536 329.272L190.64 329.909L189.544 330.543Z" fill="#A8A2F6"/>
<path d="M189.544 338.197L190.64 337.564V329.909L189.544 330.543V338.197Z" fill="#2516DF"/>
<path d="M188.44 337.56L189.544 338.197V330.543L188.44 329.905V337.56Z" fill="#A8A2F6"/>
<path d="M189.544 330.543L188.8 330.113L189.531 329.693L190.282 330.116L189.544 330.543Z" fill="#096EA8"/>
<path d="M189.552 332.891L189.544 332.887V330.544L190.282 330.117L190.637 330.317V332.268L189.552 332.891Z" fill="#093B7D"/>
<path d="M189.544 332.886L188.444 332.246V330.316L188.799 330.113L189.544 330.543V332.886Z" fill="#096EA8"/>
<path d="M196.215 326.687L195.111 326.05L196.207 325.416L197.312 326.053L196.215 326.687Z" fill="#A8A2F6"/>
<path d="M196.214 334.341L197.312 333.708V326.053L196.214 326.687V334.341Z" fill="#2516DF"/>
<path d="M195.111 333.704L196.215 334.341V326.687L195.111 326.05V333.704Z" fill="#A8A2F6"/>
<path d="M196.215 326.687L195.465 326.255L195.945 325.973L196.691 326.412L196.215 326.687Z" fill="#096EA8"/>
<path d="M196.214 329.041V326.687L196.69 326.412L197.312 326.777V328.407L196.214 329.041Z" fill="#093B7D"/>
<path d="M196.211 329.042L195.121 328.536V326.456L195.465 326.255L196.215 326.687V329.04L196.211 329.042Z" fill="#096EA8"/>
<path d="M182.828 326.667L181.723 326.03L182.82 325.397L183.924 326.035L182.828 326.667Z" fill="#A8A2F6"/>
<path d="M182.828 334.323L183.924 333.689V326.035L182.828 326.668V334.323Z" fill="#2516DF"/>
<path d="M181.723 333.685L182.828 334.323V326.668L181.723 326.031V333.685Z" fill="#A8A2F6"/>
<path d="M182.828 326.667L182.337 326.384L183.077 325.953L183.564 326.243L182.828 326.667Z" fill="#096EA8"/>
<path d="M182.828 329.018V326.667L183.564 326.243L183.921 326.457V328.408L182.828 329.018Z" fill="#093B7D"/>
<path d="M182.825 329.019L181.73 328.386V326.737L182.337 326.384L182.828 326.667V329.018L182.825 329.019Z" fill="#096EA8"/>
<path d="M189.545 330.531L180.31 325.199L189.487 319.901L198.723 325.232L189.545 330.531Z" fill="white"/>
<path d="M189.545 332.136L198.723 326.836V325.233L189.545 330.532V332.136Z" fill="#A8A2F6"/>
<path d="M180.31 326.804L189.545 332.136V330.532L180.31 325.2V326.804Z" fill="#CBC7FA"/>
<path d="M328.868 441.567L219.688 378.94L253.841 347.153L363.021 409.781L328.868 441.567Z" fill="#5598E9"/>
<path d="M314.775 324.898L274.696 310.387L383.877 373.014L423.955 387.525L314.775 324.898Z" fill="#DDB79B"/>
<path d="M383.878 373.014L363.021 409.781L253.841 347.154L274.697 310.387L383.878 373.014Z" fill="#433E44"/>
<path d="M333.907 446.543L333.904 436.882V446.452L333.907 446.448V446.543Z" fill="#02288E"/>
<path d="M333.907 446.543L224.733 383.933V381.835L328.868 441.568L333.903 436.882V446.541" fill="#5245ED"/>
<path d="M224.733 374.244V371.687L224.909 371.586L226.568 372.537L224.733 374.244Z" fill="#02288E"/>
<path d="M224.733 371.687V371.485L224.909 371.586L224.733 371.687Z" fill="#0852BE"/>
<path d="M328.868 441.567L224.733 381.834V374.244L226.568 372.537L333.907 434.095L333.903 436.881L328.868 441.567Z" fill="#073CAE"/>
<path d="M341.313 429.986L363.021 409.781L383.878 373.014L382.02 371.948L383.878 373.014L418.386 385.509L408.124 391.431L383.878 382.663L364.684 416.498L341.313 429.986Z" fill="#5245ED"/>
<path d="M333.907 446.448V436.879L341.313 429.987L364.683 416.498L363.021 419.43L333.907 446.448ZM418.741 395.271L408.123 391.431L418.386 385.509L418.741 385.637V395.271Z" fill="#5245ED"/>
<path d="M333.907 436.878V434.095L333.904 427.998L357.158 406.417L363.021 409.781L341.313 429.986L333.907 436.878Z" fill="#033093"/>
<path d="M418.74 384.533L383.737 364.454L383.878 364.209L418.74 381.284V384.533Z" fill="url(#paint2_linear_56_1198)"/>
<path d="M418.741 385.638L418.385 385.51L383.878 373.016L382.019 371.949L383.878 368.673L381.967 367.577L383.737 364.456L418.741 384.535V385.638Z" fill="#073962"/>
<path d="M363.021 409.781L357.158 406.417L360.05 403.733L363.021 405.437L382.019 371.948L383.878 373.014L363.021 409.781Z" fill="#02132B"/>
<path d="M333.904 446.452V436.883L333.907 436.879V446.449L333.904 446.452Z" fill="#000D5A"/>
<path d="M333.904 436.883V434.095L333.907 434.097V436.88L333.904 436.883Z" fill="#00136E"/>
<path d="M328.868 437.225L219.688 374.597L253.841 342.812L363.021 405.439L328.868 437.225Z" fill="#A8A2F6"/>
<path d="M314.775 320.553L274.696 306.044L383.877 368.671L423.955 383.181L314.775 320.553Z" fill="#A8A2F6"/>
<path d="M383.878 368.672L363.021 405.438L253.841 342.811L274.697 306.045L383.878 368.672Z" fill="#CBC7FA"/>
<path d="M147.182 334.452V338.861L101.551 351.039V346.63L147.182 334.452Z" fill="#A8A2F6"/>
<path d="M147.182 334.452V338.86L185.488 398.769V394.36L147.182 334.452Z" fill="#A8A2F6"/>
<path d="M423.956 387.525V383.181L383.878 368.672L363.021 405.438L328.868 437.224V441.567L363.021 409.781L383.878 373.014L423.956 387.525Z" fill="#2516DF"/>
<path d="M328.868 441.567V437.224L219.688 374.596V378.94L328.868 441.567Z" fill="#A8A2F6"/>
<path d="M284.376 355.124V332.659L278.213 329.097L276.93 317.04H284.376L307.28 329.792L306.891 333.094L301.013 342.655L284.376 355.124Z" fill="#5245ED"/>
<path d="M291.888 329.227V341.967L284.376 355.124V332.659L291.888 329.227Z" fill="#2516DF"/>
<path d="M284.376 355.124L269.483 346.519V324.054L284.376 332.659V355.124Z" fill="#A8A2F6"/>
<path d="M282.291 332.151L265.547 322.476L277.207 315.954L293.952 325.629L282.291 332.151Z" fill="#CBC7FA"/>
<path d="M282.291 331.406L265.547 321.73L277.207 315.209L293.952 324.884L282.291 331.406Z" fill="white"/>
<path d="M283.411 333.954L291.889 329.227L293.952 325.63L282.291 332.152L283.411 333.954Z" fill="#2516DF"/>
<path d="M265.547 322.477L266.667 324.278L283.411 333.954L282.291 332.152L265.547 322.477Z" fill="#A8A2F6"/>
<path d="M282.291 332.151V331.406L293.952 324.883V325.629L282.291 332.151Z" fill="#A8A2F6"/>
<path d="M282.291 332.151V331.406L265.547 321.73V322.476L282.291 332.151Z" fill="#CBC7FA"/>
<path d="M270.807 346.144V328.32L283.055 335.386V353.211L270.807 346.144Z" fill="#A8A2F6"/>
<path d="M272.242 330.812V345.317L281.619 350.719V336.214L272.242 330.812Z" fill="white"/>
<path d="M273.858 331.744V344.63L281.619 349.098V350.719L272.242 345.318V330.812L273.858 331.744Z" fill="#2516DF"/>
<path d="M273.858 344.63L272.242 345.318L281.619 350.719V349.098L273.858 344.63Z" fill="#CBC7FA"/>
<path d="M275.052 345.319H272.242L273.858 344.63V331.745L275.084 332.45L275.052 345.319Z" fill="#0C59BE"/>
<path d="M315.833 373.135L310.493 354.856L308.387 335.05H315.833L338.738 347.803L338.348 351.105L332.469 360.666L315.833 373.135Z" fill="#5245ED"/>
<path d="M323.345 347.236V359.977L315.833 373.135V350.67L323.345 347.236Z" fill="#2516DF"/>
<path d="M315.833 373.135L300.94 364.529V342.065L315.833 350.67V373.135Z" fill="#A8A2F6"/>
<path d="M313.748 350.164L297.003 340.489L308.665 333.968L325.408 343.644L313.748 350.164Z" fill="#CBC7FA"/>
<path d="M313.748 349.416L297.003 339.741L308.665 333.22L325.408 342.895L313.748 349.416Z" fill="white"/>
<path d="M314.867 351.966L323.345 347.237L325.408 343.643L313.748 350.164L314.867 351.966Z" fill="#2516DF"/>
<path d="M297.003 340.489L298.123 342.289L314.867 351.966L313.748 350.164L297.003 340.489Z" fill="#A8A2F6"/>
<path d="M313.748 350.164V349.418L325.408 342.896V343.644L313.748 350.164Z" fill="#A8A2F6"/>
<path d="M313.748 350.164V349.418L297.003 339.743V340.489L313.748 350.164Z" fill="#CBC7FA"/>
<path d="M302.262 364.157V346.332L314.511 353.399V371.223L302.262 364.157Z" fill="#A8A2F6"/>
<path d="M303.698 348.824V363.329L313.075 368.732V354.226L303.698 348.824Z" fill="white"/>
<path d="M305.314 349.756V362.643L313.075 367.111V368.732L303.698 363.33V348.824L305.314 349.756Z" fill="#2516DF"/>
<path d="M305.314 362.643L303.698 363.33L313.075 368.732V367.111L305.314 362.643Z" fill="#CBC7FA"/>
<path d="M303.698 363.329H306.51L306.541 350.46L305.314 349.756V362.642L303.698 363.329Z" fill="#2516DF"/>
<path d="M347.29 391.147L341.95 372.869L339.843 353.063H347.29L370.194 365.815L369.804 369.117L363.924 378.678L347.29 391.147Z" fill="#5245ED"/>
<path d="M354.801 365.25V377.991L347.29 391.147V368.683L354.801 365.25Z" fill="#2516DF"/>
<path d="M347.29 391.147L332.397 382.541V360.077L347.29 368.683V391.147Z" fill="#A8A2F6"/>
<path d="M345.203 368.176L328.459 358.5L340.121 351.979L356.864 361.655L345.203 368.176Z" fill="#CBC7FA"/>
<path d="M345.203 367.429L328.459 357.754L340.121 351.233L356.864 360.909L345.203 367.429Z" fill="white"/>
<path d="M346.323 369.978L354.801 365.25L356.864 361.655L345.203 368.176L346.323 369.978Z" fill="#2516DF"/>
<path d="M328.459 358.501L329.58 360.302L346.323 369.978L345.203 368.176L328.459 358.501Z" fill="#A8A2F6"/>
<path d="M345.203 368.176V367.429L356.864 360.909V361.655L345.203 368.176Z" fill="#A8A2F6"/>
<path d="M345.203 368.176V367.429L328.459 357.754V358.5L345.203 368.176Z" fill="#CBC7FA"/>
<path d="M333.718 382.169V364.343L345.967 371.41V389.234L333.718 382.169Z" fill="#A8A2F6"/>
<path d="M335.154 366.836V381.341L344.531 386.743V372.238L335.154 366.836Z" fill="white"/>
<path d="M336.77 367.768V380.655L344.53 385.122V386.743L335.154 381.342V366.835L336.77 367.768Z" fill="#2516DF"/>
<path d="M336.77 380.655L335.154 381.342L344.53 386.743V385.122L336.77 380.655Z" fill="#CBC7FA"/>
<path d="M335.154 381.342H337.966L337.996 368.473L336.77 367.768V380.654L335.154 381.342Z" fill="#2516DF"/>
</g>
<defs>
<linearGradient id="paint0_linear_56_1198" x1="264.806" y1="313.093" x2="264.806" y2="422.715" gradientUnits="userSpaceOnUse">
<stop stop-color="#F7F7FD"/>
<stop offset="1" stop-color="#E8E6F9"/>
</linearGradient>
<linearGradient id="paint1_linear_56_1198" x1="264.807" y1="313.095" x2="264.807" y2="422.717" gradientUnits="userSpaceOnUse">
<stop stop-color="#FFFCF7"/>
<stop offset="1" stop-color="#E8E6F9"/>
</linearGradient>
<linearGradient id="paint2_linear_56_1198" x1="264.806" y1="313.094" x2="264.806" y2="422.715" gradientUnits="userSpaceOnUse">
<stop stop-color="#0850A1"/>
<stop offset="1" stop-color="#074CA1"/>
</linearGradient>
</defs>
</svg>
