<svg width="32" height="32" viewBox="0 0 32 32" fill="none" xmlns="http://www.w3.org/2000/svg">
<g clip-path="url(#clip0_309_137)">
<path d="M25.3333 11.6134L18.2227 6.08271C17.5986 5.59725 16.8306 5.33368 16.04 5.33368C15.2494 5.33368 14.4813 5.59725 13.8573 6.08271L6.74532 11.6134C6.31791 11.9458 5.97211 12.3714 5.73433 12.8578C5.49655 13.3443 5.37307 13.8786 5.37332 14.42V24.02C5.37332 24.7273 5.65427 25.4056 6.15437 25.9057C6.65447 26.4058 7.33274 26.6867 8.03999 26.6867H24.04C24.7472 26.6867 25.4255 26.4058 25.9256 25.9057C26.4257 25.4056 26.7067 24.7273 26.7067 24.02V14.42C26.7067 13.3227 26.2 12.2867 25.3333 11.6134Z" fill="#7065F0" stroke="#7065F0" stroke-width="3" stroke-linecap="round" stroke-linejoin="round"/>
<path d="M21.3333 20C18.3867 21.7774 13.6107 21.7774 10.6667 20" stroke="#F9FAFB" stroke-width="3" stroke-linecap="round" stroke-linejoin="round"/>
</g>
<defs>
<clipPath id="clip0_309_137">
<rect width="32" height="32" fill="white"/>
</clipPath>
</defs>
</svg>
