<svg width="64" height="64" viewBox="0 0 64 64" fill="none" xmlns="http://www.w3.org/2000/svg">
<circle cx="32" cy="32" r="31.5" fill="white" stroke="#E0DEF7"/>
<circle cx="32" cy="32" r="28" fill="#E0DEF7"/>
<path d="M22.6667 26.6667C20.4533 26.6667 18.6667 28.4534 18.6667 30.6667V41.3334C18.6667 43.5467 20.4533 45.3334 22.6667 45.3334H24.6667C26.1333 45.3334 27.3333 44.1334 27.3333 42.6667V29.3334C27.3333 27.8667 26.1333 26.6667 24.6667 26.6667H22.6667ZM24 38.6667C24 39.2134 23.5467 39.6667 23 39.6667C22.4533 39.6667 22 39.2134 22 38.6667V33.3334C22 32.7867 22.4533 32.3334 23 32.3334C23.5467 32.3334 24 32.7867 24 33.3334V38.6667Z" fill="white"/>
<path d="M41.3333 18.6667H33.3333C31.12 18.6667 29.3333 20.4534 29.3333 22.6667V41.3334C29.3333 43.5467 31.12 45.3334 33.3333 45.3334H34C34.3733 45.3334 34.6667 45.04 34.6667 44.6667V40C34.6667 39.2667 35.2667 38.6667 36 38.6667H38.6667C39.4 38.6667 40 39.2667 40 40V44.6667C40 45.04 40.2933 45.3334 40.6667 45.3334H41.3333C43.5467 45.3334 45.3333 43.5467 45.3333 41.3334V22.6667C45.3333 20.4534 43.5467 18.6667 41.3333 18.6667ZM35.6667 33.3334C35.6667 33.88 35.2133 34.3334 34.6667 34.3334C34.12 34.3334 33.6667 33.88 33.6667 33.3334V26.6667C33.6667 26.12 34.12 25.6667 34.6667 25.6667C35.2133 25.6667 35.6667 26.12 35.6667 26.6667V33.3334ZM41 33.3334C41 33.88 40.5467 34.3334 40 34.3334C39.4533 34.3334 39 33.88 39 33.3334V26.6667C39 26.12 39.4533 25.6667 40 25.6667C40.5467 25.6667 41 26.12 41 26.6667V33.3334Z" fill="white"/>
<path d="M40 48C40 43.5817 43.5817 40 48 40H56C60.4183 40 64 43.5817 64 48V56C64 60.4183 60.4183 64 56 64H48C43.5817 64 40 60.4183 40 56V48Z" fill="#7065F0"/>
<path d="M51.6667 58C55.1645 58 58 55.1644 58 51.6666C58 48.1688 55.1645 45.3333 51.6667 45.3333C48.1689 45.3333 45.3333 48.1688 45.3333 51.6666C45.3333 55.1644 48.1689 58 51.6667 58Z" stroke="white" stroke-width="2" stroke-linecap="round" stroke-linejoin="round"/>
<path d="M58.6667 58.6666L57.3333 57.3333" stroke="white" stroke-width="2" stroke-linecap="round" stroke-linejoin="round"/>
</svg>
